<svg viewBox="0 0 1116 1655" xmlns="http://www.w3.org/2000/svg" fill="currentColor">
<path transform="translate(547)" d="m0 0h24l31 1 35 3 23 4 13 1 15 4 26 6 17 6 14 4 22 9 12 5 30 15 26 14 22 13 13 10 11 8 13 12 20 20 18 22 6 9 11 13 8 10 12 14 6 8 5 6 11 15 14 27 8 18 5 13 6 14 4 11 6 16 14 34 9 20 11 23 10 19 13 26 6 13 8 24 5 23 4 29 1 19v76l-2 36-3 20-1 14-2 10-1 12-1 25-5 16-8 16-4 9-7 20-5 13-8 21-16 36-12 22-8 14-8 13-9 14-10 14-10 13-9 11-16 17-10 10-8 7-44 44-8 7-12 11-13 10-16 11-11 7-18 10-17 9-17 8-14 8-32 16-20 8-14 5-9 3-14 5-12 4-14 4-23 5-12 2-8 2-29 3-8 1h-56l-15-1-3-1-37-3-38-6-14-5-11-3-1-1-13-2-24-1-6 1-16-1-13-3-19-10-12-7-9-3-19-5-12-5-11-9-9-9v-2l-4-2-15-13-16-12-16-13-11-9-24-22-9-10-9-12-6-10-7-17-8-14-7-11-12-20-11-20-8-16-15-31-13-28-7-20-6-20-4-15-6-27-1-9-3-9-3-14-4-16-3-8-6-17-3-10-4-21-3-24-4-64v-58l4-54 5-31 2-10 1-11 5-21 4-16 7-22 3-10 7-18 11-24 5-10 8-13 6-10 10-16 8-11 7-10 10-14 8-11 13-19 13-15 8-10 25-25 11-9 12-11 9-7 14-10 19-14 30-21 14-9 19-12 19-11 15-8 18-8 23-8 37-4 23-7 16-5 24-5 41-4zm-13 48-30 2-14 3-15 2-9 3-11 2-19 6-21 7-15 6-33 16-25 12-27 12-26 11-20 9-18 10-12 8-16 12-10 8-9 8-7 8-10 11-13 18-7 9-10 15-9 12-11 15-11 18-8 13-13 25-5 12-3 6-7 20-5 12-6 19-7 24-7 30-9 39-6 18-4 13-2 22 1 34 2 20 3 25 3 19 2 22 2 14 1 18 3 14 2 21 9 46 9 31 14 38 13 28 12 24 10 18 12 29 7 11 12 13 18 22 20 26 12 14 4 5 8 7 11 9 18 13 10 9 14 11 8 6 23 12 31 13 18 6 13 4 20 6 14 3 17 3 20 4 25 2 7 1 18 1h50l51-5 20-4 43-10 9-3 10-3 27-9 4-2 8-2 27-12 16-8 15-8 5-4 7-4 18-13 18-11 20-11 14-10 8-6 16-16 3-4v-2l4-2 7-7 11-9 8-6 11-8 11-9 7-6 10-13 9-13 7-10 7-8 4-6 4-4 10-15 11-18 14-27 6-10 8-17 8-16 7-18 9-31 3-14 2-9 4-19 2-23-1-27-4-10-8-7h-13l-7 6-5 10-3 8-6 41-3 8-2 8-9 24-7 17-9 21-7 16-12 27-9 17-12 19-6 11-7 12-9 13-10 15-9 16-7 9-8 10-10 11-6 7-10 8-7 6-11 9-7 6-11 8-15 10-14 9-24 13-19 10-10 4-9 4-18 7-29 9-10 2-8 2-21 3-17 2-15 1-29 5-20 5-30 1-14-2-20-3-14-3-12-3-19-2-14-3-13-2-20-5-16-5-10-3-11-4-19-8-18-8-19-10-20-12-17-11-14-12-11-12-13-13-15-11-14-10-10-9-14-19-9-13-13-22-11-23-8-16-5-11-5-13-4-10-7-20-3-9-8-25-5-19-8-42-2-19-2-15-1-18v-74l2-28 2-15 1-13 6-29 4-19 4-16 5-17 9-27 7-19 9-20 6-15 6-9 7-14 12-19 14-20 8-11 11-13 9-11 11-12 11-14 9-11 28-28 16-11 6-4 8-5v-2l6-2 22-12 10-5 25-9 13-2h14l23 2h31l29-2 34-4 11-2 15-2 11-2 25-3 13-2 47-1 16 1 13 5 8 4 19 7 19 3 14 4 17 8 10 7 11 7 13 9 9 7 10 9 8 7 3 1 2 4 9 8 9 11 11 13 12 16 11 15 13 20 9 17 11 23 8 18 9 27 5 16 5 21 2 6 2 15 2 8 4 29 1 18v45l-2 24-3 21-3 14-3 12-6 21-2 9-5 13-3 9-10 25-12 26-7 14-11 20-13 21-10 14-6 8-6 7-8 10-13 15-25 25-11 9-9 8-14 11-14 10-6 4-20 13-18 10-14 7-16 7-22 8-30 9-12 2-7 2-21 4-30 2-35-1-30-8-26-6-9-2-15-3-9-3-8-2-8-3-20-8-11-6-15-13-12-13-4-6-14-17-9-13-13-25-9-20-7-14-9-21-13-29-11-24-7-16-10-17-13-24-6-12-3-10-4-16-2-13v-44l2-13 5-21 7-22 6-16 4-11 5-13 6-17 5-14 3-11 2-32 4-19 7-11 6-5 17-10 13-7 7-3 15-8 13-8 16-8 25-11 28-9 16-4 21-5 18-2 4-1 25-1 21 3 17 1 35 8 19 5 30 9 6 3 9 3 11 3 3 2 29 6 9 1 3 2 9 1 25 13 14 9 12 8 14 11 13 12 9 12 10 17 4 8 4 13 5 18 2 13 1 2 5 35 1 41-1 32-5 25-6 22-10 24-9 17-3 5-8 12-11 13-9 11-7 7-10 8-16 13-14 11-18 13-10 7-24 14-12 6-9 4-23 7-25 4-13 1h-35l-20-2-13-2-22-5-4-2-9-2-12-5-16-6-25-12-10-7-9-6-15-14-8-11-10-14-11-19-5-9-3-10-3-11-2-18v-33l1-6v-27l-1-5v-19l-1-12v-18l2-15 3-15 6-15 6-14 11-17 9-12 7-9 8-7 13-9 9-5 12-3h15l8 2 9 1h31l16-3 17-2 10-2 14 1 9 3 10 7 15 14 6 8 5 4 7 8 7 9 5 5 6 7 9 12 8 11 6 13 4 19 2 27v20l-2 30-3 14-2 10-4 12-6 13-6 9-5 5-8 5-5 2-10 2h-10l-22-5-13-4-15-5-27-3-9-2-24-3-15-5-11-6-9-10-6-10-9-22-4-19v-17l6-19 7-12 7-9 10-9 17-10 5-2 7-2 16-4h14l12 3 12 7 10 9 8 9 5 11v16l-3 7-10 7-13 7-5 6-2 5 1 5 8 4h15l16-6 9-6 10-9 7-11 2-10v-14l-1-9-3-8-6-12-15-15-16-10-11-5-12-4-10-2-5-2-27-2-23 1-12 2-17 6-11 6-7 4-5 5-13 14-9 14-5 9-6 21-2 5-2 26 1 28 2 12 2 9 4 14 2 8 5 15 5 12 8 19 6 10 8 12 6 4 8 5 14 6 16 4 14 3 3 1 30 2h67l19-2 22-7 17-8 12-8 14-11 23-23 8-9 5-5 7-6 4-5 5-5 11-12 12-16 8-13 8-16 5-15 4-17 1-8v-42l-5-28-4-12-4-13-7-17-9-17-10-13-7-8-14-11-9-7-10-6-13-4h-34l-17-5-27-18-14-9-14-6-26-6-17-1-4-1-32 2-8 2-17 4-13 4-13 6-16 8-15 9-13 10-5 4-5 5-12 11-11 12-12 17-10 17-9 19-7 16-6 16-7 21-9 36-3 15-3 37-1 7-1 59 4 20 5 12 9 17 11 28 5 16 3 11 5 13 6 11 8 10 9 10 16 12 21 12 16 8 16 7 20 7 15 5 23 6 40 8 32 3h39l14-2 12-1 27-9 20-9 9-5 19-12 14-10 12-9 13-10 14-11 10-9 9-7 9-9 8-7 10-11 8-10 14-18 8-13 10-15 10-18 13-28 4-8 6-16 6-15 8-21 6-18 1-6 1-43 6-25v-21l-3-32-4-18-5-21-9-25-5-21-4-13-10-18-9-12-12-14-21-21-19-14-9-6-19-9-16-7-24-8-21-6-9-3-10-2-19-6-12-3-13-3-14-3-47-1-10-1-42-1-18-2-19-2-7-2-19-2-11-2-14-1-22 1-15 4-16 8-11 7-11 8-12 10-5 5-10 8-13 10-14 12-9 7-11 9-13 12-10 9-25 25-11 14-8 13-8 15-7 18-7 20-3 12-5 19-3 16-9 39-6 18-2 14-1 11-2 8-2 29-1 16v77l1 5 1 20 1 13 4 20 3 14 6 26 5 31 6 18 11 23 9 13 7 9 24 28 10 10 11 9 10 10 14 11 13 10 10 7 12 9 18 12 18 10 27 13 8 3 20 7 25 7 8 2 12 2 9 2 16 2 3 1 38 2h22l34-2 27-4 8-2 14-2 13-4 18-5 15-5 12-5 26-12 25-14 20-13 10-7 16-12 11-9 16-13 8-7 7-6 7-8 5-4v-2l4-2 23-23 7-8 10-11 6-8 9-10 7-11 7-10 13-22 15-30 4-7 4-10 9-21 10-19 8-16 6-16 7-26 3-13 2-8 1-3 2-16 3-15 2-17 2-13 3-37 1-8v-57l-2-7-2-21-5-25-7-21-5-13-7-19-4-11-7-16-2-10-2-5-6-28-6-16-9-17-12-16-9-11-17-17-8-7-13-11-8-7-15-12-14-9-15-10-10-6-8-5-11-6-20-12-11-8-18-11-19-8-11-4-8-2-25-7-13-2-11-3-14-3-15-2-11-3-12-2-9-2-21-1-6-1z"/>
<path transform="translate(512,1237)" d="m0 0h53l19 2 16 3 17 5 16 8 8 6 5 4 6 12 3 13v31l-2 23-3 36 1 16 3 12 5 7 16 8 33 1 9 1 9 5 5 6 3 7v14l-6 15-9 17-12 18-10 14-13 22-16 26-4 6-7 10-9 13-8 11-11 13-9 10-11 10-11 7-8 3-11 2-17-5-14-9-9-10-6-9-5-9-5-10-3-8-8-18-11-23-13-25-9-14-3-5-11-15-8-10-6-7-9-7-15-9-7-3-16-9-13-11-6-9-2-10v-12l6-3 22-3 14-6 9-7 5-6 6-16 2-18v-35l-1-13v-37l4-10 2-4 13-6 30-5zm9 50-8 2-12 5-1 3-4 2-4 5-4 14-1 20 1 4v38l-3 17-6 12-8 11-2 4v21l4 10 7 11 5 4 4 6 9 10 5 5 8 7 6 9 11 23 5 11 9 23 11 17 9 8 6 3 15 1 9-3 9-8 8-10 9-16 5-12 6-12 15-25 7-15 3-8v-15l-7-11-10-9-10-8-8-7-8-10-5-10-4-16v-31l3-17v-25l-6-16-11-9-11-6-18-4-5-2-8-1z"/>
</svg>
